<svg width="18" height="20" viewBox="0 0 18 20" fill="none" xmlns="http://www.w3.org/2000/svg">
<path fill-rule="evenodd" clip-rule="evenodd" d="M6.83588 16.085C5.44588 16.385 4.04088 16.06 2.88188 15.299C1.14388 14.158 -0.0541164 12.046 0.00188362 9.598C0.0758836 6.365 2.61988 3.538 6.88988 1.055C7.28688 0.824 7.55888 0.645 7.78088 0.498C8.15288 0.252 8.53488 0 8.99988 0C9.46388 0 9.84688 0.252 10.2189 0.498C10.4409 0.644 10.7129 0.824 11.1099 1.055C15.3799 3.536 17.9239 6.365 17.9979 9.597C18.0539 12.045 16.8559 14.157 15.1179 15.297C13.9579 16.059 12.5549 16.383 11.1639 16.083C11.3699 16.702 11.6009 17.253 11.8579 17.679C11.9493 17.8308 11.9988 18.0042 12.0012 18.1814C12.0036 18.3586 11.9589 18.5333 11.8716 18.6875C11.7843 18.8418 11.6576 18.9701 11.5044 19.0592C11.3512 19.1484 11.1771 19.1952 10.9999 19.195H6.99988C6.82289 19.195 6.64907 19.148 6.49619 19.0588C6.3433 18.9696 6.21683 18.8414 6.12968 18.6874C6.04254 18.5333 5.99784 18.3589 6.00016 18.1819C6.00248 18.0049 6.05173 17.8317 6.14288 17.68C6.39888 17.253 6.62988 16.704 6.83588 16.085Z" fill="white"/>
</svg>
